<svg xmlns="http://www.w3.org/2000/svg" viewBox="0 0 512 512" width="512" height="512" role="img" aria-label="Espresso cup">
  <rect width="512" height="512" fill="#173a5e"/>
  <!-- steam -->
  <g fill="none" stroke="#bcd6df" stroke-width="13" stroke-linecap="round" opacity="0.85">
    <path d="M214 170 C196 148 232 132 214 110"/>
    <path d="M256 160 C238 136 274 120 256 96"/>
    <path d="M298 170 C280 148 316 132 298 110"/>
  </g>
  <!-- saucer -->
  <ellipse cx="256" cy="374" rx="152" ry="27" fill="#f1e7d3"/>
  <ellipse cx="256" cy="380" rx="120" ry="16" fill="#dccaa3" opacity="0.55"/>
  <!-- handle -->
  <path d="M338 252 c58 2 56 74 2 82" fill="none" stroke="#f1e7d3" stroke-width="22" stroke-linecap="round"/>
  <!-- cup body -->
  <path d="M170 232 L342 232 L326 332 Q322 354 298 354 L214 354 Q190 354 186 332 Z" fill="#f1e7d3"/>
  <!-- rim + coffee + gold crema ring -->
  <ellipse cx="256" cy="232" rx="88" ry="21" fill="#fbf6ea"/>
  <ellipse cx="256" cy="232" rx="69" ry="14" fill="#33210f"/>
  <ellipse cx="256" cy="230" rx="69" ry="14" fill="none" stroke="#f5c43d" stroke-width="5"/>
</svg>
